<svg xmlns="http://www.w3.org/2000/svg" viewBox="0 0 395 220"><defs><style>.cls-1{fill:#002754}.cls-1,.cls-2{fill-rule:evenodd}.cls-2,.cls-3{fill:#005493}</style></defs><title>HackUVic_Logo</title><g id="Foreground"><path class="cls-1" d="M281.48 185.36l.76-1.6.75-1.61.73-1.63.72-1.64.7-1.65.69-1.67.67-1.68.66-1.69.64-1.71.63-1.72.57-1.76.6-1.75.58-1.76.57-1.78.55-1.79.54-1.81.52-1.82.5-1.84.49-1.85.47-1.87.45-1.88.44-1.9.86-3.91h31.73l.46.05.45.06.45.08.45.09.45.11.45.13.45.14.44.16.44.18.43.21.43.23.42.25.41.27.41.29.4.32.39.33.38.36.38.38.37.4.36.42.36.44.38.49.39.58.36.64.3.66.24.67.19.68.14.69.1.69.06.7v2.1l-.07.7-.1.7-.12.7-.14.7-.16.7-.18.7-.19.7-.21.7-.22.7-.23.7-.24.69-.25.69-.25.69-.26.68-.26.67-.26.67-.26.66-.26.65-.26.64-.25.63-.25.64-.26.65-.28.64-.28.63-.29.61-.3.6-.31.58-.33.56-.34.55-.35.54-.36.52-.38.51-.39.49-.41.48-.42.46-.44.45-.45.44-.46.42-.48.41-.5.4-.51.38-.53.37-.54.36-.56.35-.57.34-.59.33-.6.32-.62.32-.64.31.2.14.54.43.54.46.53.49.52.53.5.56.45.53.41.52.39.51.37.51.35.5.33.5.2.31.71-1.21.72-1.28.7-1.29.69-1.3.67-1.31.66-1.32.64-1.34.62-1.35.61-1.36.59-1.37.58-1.38.56-1.39.55-1.4.53-1.41.52-1.42.5-1.43.49-1.44.48-1.45.46-1.46.45-1.47.43-1.48.42-1.49.41-1.5.39-1.51.38-1.52.28-1.28.35-1.54.34-1.55.33-1.56.32-1.56.7-3.64 45.54.08-1.14 3.71-.14.44-.14.44-.14.44-.14.44-.14.44-.15.44-.15.44-.15.44-.15.44-.15.44-.15.44-.15.44-.16.44-.16.44-.16.44-.16.44-.16.44-.16.44-.16.44-.17.44-.17.44-.17.44-.17.44-.17.44-.17.44-.17.44-.18.44-.18.44-.18.44-.18.44-.82 2-19.93.32-.09.36-.14.52-.14.51-.14.51-.15.51-.15.51v.13l13.65-.22-1.47 3.82-.13.33-.13.34-.14.35-.15.36-.15.37-.16.38-.16.38-.17.39-.18.4-.18.4-.19.41-.19.42-.2.42-.21.43-.21.43-.16.31-.15.3-.15.3-.15.29-.15.28-.15.28-.15.27-.14.26-.14.26-.14.25-.14.25-.14.24-.13.24-.13.23-.13.22-.83 1.42-13.21.45-.1.17-.28.47-.28.47-.29.47-.29.47-.3.46 18.05-.62-3.05 4.43-.22.32-.22.32-.22.32-.22.32-.22.32-.22.31-.22.32-.22.31-.23.32-.23.31-.23.31-.23.31-.23.31-.23.31-.23.31-.23.31-.23.31-.24.31-.24.31-.24.31-.24.31-.21.33-.24.31-.24.31-.24.31-.25.31-.25.31-.25.31-.25.31-.25.31-.95 1.17-29.92 1.92-28.65 1.84 2.33-4.09v-.15l.06-.1.07-.13.08-.15.08-.17.09-.19.1-.21.1-.23.1-.24.1-.25.1-.27.1-.28.1-.28.09-.29.08-.29.08-.29.07-.3.06-.29v-2.19l-.05-.16-.07-.17-.1-.21-.12-.23-.13-.22-.14-.22-.15-.22-.16-.21-.17-.21-.17-.2-.18-.2-.18-.19-.19-.18-.16-.15h-2.3v.06l-.23.43-.23.43-.23.43-.23.43-.23.43-.24.43-.24.43-.24.43-.24.43-.24.43-.24.43-.25.43-.25.43-.25.43-.25.43-.26.43-.26.43-.26.43-.26.43-.26.43-.27.43-.27.43-.27.43-.27.43-.27.43-.28.43-.28.43-.28.43L293 202l-21.43 1.38 3.32-5.63.87-1.5.85-1.52.84-1.53.83-1.54.81-1.55.8-1.56.79-1.58.77-1.59zM78 190.74v.28l-.57 1.71-6.16.27-.08.25-.16.48-.16.48-.16.48-.16.47v.11l3.45-.24 3.13-.24-.65 1.86-.62 1.91v1.02l-.77 2.21-.05.14-.1.27v.71l-.4 1-.2.54-1.28.14-5.6.4-.21.5-.21.49-.21.49-.21.49-.21.49-.08.18 6.89-.2-1.74 3.92-.11.24-.11.24-.11.24-.11.24-.11.24-.11.24-.11.23-.11.24-.11.24-.11.24-.11.23-.11.24-1 2-18.06 1.19 2.32-4.71.37-.78.37-.78.37-.8.37-.8.37-.81.36-.82.36-.83.36-.84.36-.85.36-.85.35-.86L57 203l.35-.88.35-.88.35-.89.35-.9.34-.9.34-.91.34-.92.34-.92.34-.93.34-.93.34-.94.34-.94.33-.95.33-1 .33-1 .33-1 .33-1 .33-1 .9-2.66 6.7-.16 8.9-.21-.6 3.32v1.62l-.07.24v.74l-.05.22v1.27zm-43.56-.48l-.1.4-.1.38-.1.37-.1.36-.1.34-.1.33-.1.32-.63 2-5.42.24-.17.61-.23.81-.24.81-.25.81-.26.81-.26.8-.27.8-.28.8-.28.8-.29.8-.29.79-.3.79-.31.79-.31.79-.32.79-.33.79-.33.79-.34.78-.34.78-.35.78-.35.78-.36.78-.36.78-.37.78-.37.78-.38.77-.38.77-.39.77-.39.77-1.05 2-5.29.35H6.73L9 215.64l.38-.75.38-.75.37-.75.37-.75.36-.75.36-.75.35-.75.35-.75.34-.75.34-.75.33-.76.33-.76.32-.76.31-.76.31-.76.3-.76.3-.76.29-.76.28-.76.28-.76.27-.76.26-.76.26-.76.25-.76.24-.76.24-.76.16-.52-6.88.3 4-11 21-.5-.5 3.28-.06.33-.06.34-.07.36-.08.38-.09.4-.1.43-.11.45zm1.56-2.12l.25-1 .7-2.9 10.13-.24-.86 3.63-.11.43-.11.43-.11.43-.11.43-.11.43-.12.43-.12.43-.12.43-.12.43-.12.43-.13.43-.13.43-.13.43-.13.43-.13.43-.14.43-.14.43-.14.43-.14.43-.14.43-.14.43-.15.43v.12l2.82-.19v-.07l.15-.4.14-.4.14-.4.14-.4.14-.4.14-.4.14-.4.14-.4.14-.4.14-.4.14-.4.14-.4.14-.4.13-.4.13-.4.13-.4.13-.4.13-.4.13-.4.13-.4.13-.4.13-.4.13-.4.13-.4.13-.4.12-.4.12-.4.65-2.17 10.16-.24-1.16 4.21-.26.92-.27.93-.28.92-.28.92-.29.92-.29.92-.3.92-.3.92-.31.92-.32.92-.32.92-.31.92-.33.92-.34.92-.35.92-.35.92-.36.92-.36.92-.37.92-.37.92-.38.92-.38.92-.41.8-.39.92-.4.92-.4.92-.41.92-.41.92-.42.92-.42.92-1.06 2.27-10.78.71 1.87-4.19.16-.36.16-.36.16-.36.16-.36.16-.36.16-.36.16-.36.16-.36.16-.36.15-.36.15-.36.15-.36.15-.36.15-.36.15-.36.15-.36.15-.36.15-.36.15-.36.15-.36.09-.21-2.83.2v.05l-.16.37-.16.37-.16.37-.16.37-.17.37-.17.37-.17.37-.17.37-.17.37-.17.37-.17.37-.17.37-.17.37-.17.37-.18.37-.18.37-.18.37-.18.37-.18.37-.18.36-.18.36-.18.36-.18.37-.18.36-.18.36-.18.36-.18.37-.85 1.66-10.75.7 2.43-4.81.42-.85.42-.85.42-.85.42-.86.41-.86.41-.87.41-.87.4-.88.4-.88.39-.88.39-.89.38-.89.38-.9.37-.9.37-.91.36-.91.35-.92.35-.92.34-.93.33-.93.33-.94.32-.94.31-1 .3-1 .3-1 .29-1 .28-1 .27-1 .26-1zm43.11-43.53l.55.56.49.62.42.67.35.72.27.76.18.79.1.82v.84l-.08.78-.07.44-.06.38-.06.38-.06.37-.06.37-.06.37-.06.38-.07.37-.07.37-.07.38-.07.37-.07.37-.07.37-.07.37-.07.38-.07.37-.07.37-.08.37-.08.37-.08.37-.08.37-.08.37-.08.37-.08.37-.08.37-.08.37-.08.37-.08.37-.09.37-.09.37-.09.37-.09.37-.09.37-.09.38-.09.38-.09.37-.09.37-.1.37-.1.37-.1.37-.1.37-.1.37-.1.37-.1.37-.1.37-.1.37-.1.37-.1.37-.1.37-.11.37-.11.37-.11.37-.04.45-.11.37-.11.37-.11.37-.11.37-.11.37-.11.37-.11.37-.11.37-.11.37-.11.37-.13.42-.27.75-.36.77-.42.73-.47.69-.52.65-.56.6-.6.56-.64.52-.67.47-.7.42-.73.37-.83.35-.78.26-.8.19-.82.12H50.62l-.81-.13-.78-.22-.74-.32-.69-.4-.63-.49-.56-.57-.48-.63-.39-.69-.3-.73-.21-.76-.12-.78v-1.6l.13-.81.2-.75.13-.42.11-.36.11-.36.11-.36.11-.36.11-.36.11-.36.11-.36.11-.36.11-.36.12-.43.19-.66.1-.36.1-.36.1-.36.1-.36.1-.36.1-.36.1-.36.1-.36.1-.36.1-.36.18-.69.1-.39.09-.36.09-.36.09-.36.09-.36.09-.36.09-.36.09-.36.08-.36.08-.36.08-.36.08-.36.08-.36.08-.36.08-.36.08-.36.08-.36.08-.36.08-.36.08-.36.07-.36.08-.4.14-.68.07-.36.07-.36.07-.36.07-.36.07-.36.06-.36.06-.36.06-.36.06-.36.06-.36.06-.36.06-.36.06-.36.06-.36.06-.42.15-.75.23-.78.3-.75.35-.72.41-.68.46-.64.51-.6.56-.55.61-.51.64-.54.69-.4.72-.34.76-.27.79-.2.82-.13h15.99l.82.13.79.21.75.29.71.37.66.44.61.5zM60 162.75l-.11.46-.11.46-.11.46-.11.46-.12.46-.12.46-.12.46-.12.46-.12.46-.12.46-.12.46-.12.46-.13.46-.13.46-.13.46-.09.31h7.01l.09-.05.09-.07.09-.07.08-.07.07-.08.06-.08v-.28l.11-.39.13-.45.12-.45.12-.45.12-.45.12-.44.12-.45.12-.45.12-.45.12-.45.11-.44.11-.45.11-.45.11-.45.11-.44.11-.45.11-.44.1-.44.1-.44.1-.45.1-.44.1-.44.1-.44.1-.45.09-.44.09-.45.09-.45.09-.45.09-.45.09-.45.09-.45v-.06h-7.08l-.05.05-.05.06v.32l-.08.4-.09.46-.09.46-.09.46-.09.46-.1.46-.1.46-.1.46-.1.46-.1.46-.1.46-.1.46-.1.46-.11.46-.11.46zm-9.83-11.21v2.16l-.31 2.48h-7.73v.16l-.11.42-.11.42-.11.42-.11.42-.11.42-.11.42-.11.42-.11.42-.11.42-.11.42-.11.42-.11.42-.12.42-.12.42-.12.42-.12.42-.12.42-.12.42-.12.42-.12.42-.13.42-.13.42-.13.42-.13.42-.13.42-.13.42-.13.42-.14.42-.14.42-.14.42-.14.42-.14.42-.14.42-.14.42-.15.42-.15.42-.15.42-.15.42-.15.42-.15.42-.15.42-.15.42-.15.42-.15.42-.15.42-.15.42-.16.42-.15.42-.16.42-.16.42-.16.42-.16.42-.16.42-.16.42-.16.42-.16.41-.16.42-.16.42-.78 2h-13l1.48-3.86.16-.41.16-.41.16-.41.16-.41.16-.41.16-.41.09-.37.15-.41.15-.41.15-.41.15-.41.15-.41.15-.41.15-.41.15-.41.15-.41.15-.41.15-.41.15-.41.15-.41.14-.41.15-.43.28-.8.14-.41.14-.41.14-.41.14-.41.13-.41.13-.41.13-.41.13-.41.13-.41.13-.4.13-.41.12-.41.12-.41.12-.41.23-.78.13-.45.12-.41.12-.41.12-.41.11-.41.11-.41.11-.41.11-.41.11-.41.11-.41.11-.41.11-.41.11-.41.11-.41.11-.41v-.15h-10l.39-3.11v-7.84l.2-2.6H51l-.23 3v5.94zm141.15 46.65l.59-1.34.57-1.34.56-1.34.55-1.34.53-1.34.52-1.34.5-1.34.49-1.34.47-1.34.46-1.34.45-1.34.43-1.34.42-1.34.4-1.34.39-1.34.38-1.34.36-1.34.35-1.34.33-1.34.32-1.34.3-1.34.29-1.34.28-1.34.26-1.34.19-1-12.29.21 1.31-3.93.17-.52.17-.52.16-.52.16-.52.16-.52.15-.52.15-.52.15-.52.14-.52.14-.52.14-.52.13-.52.13-.52.12-.52.12-.52.12-.52.11-.52.11-.52.11-.52.1-.52.1-.52.1-.52.09-.52.09-.52.08-.52.08-.52.08-.52.08-.52.07-.52.07-.52.34-2.76 47 .08-.57 3.46-.08.51-.09.53-.09.53-.1.53-.1.53-.1.53-.11.53-.11.53-.11.53-.11.53-.12.53-.12.53-.13.53-.13.53-.13.53-.14.53-.14.53-.14.53-.15.53-.15.53-.16.53-.16.53-.17.53-.17.53-.17.53-.18.53-.18.53-.19.53-.19.53-.2.53-.81 2.12-9.82.17-.24.93-.38 1.4-.39 1.4-.4 1.4-.41 1.4-.42 1.39-.43 1.39-.44 1.39-.46 1.38-.47 1.38-.48 1.38-.49 1.37-.5 1.37-.52 1.37-.53 1.36-.54 1.36-.56 1.36-.57 1.35-.58 1.35-.6 1.35-.62 1.26-.62 1.34-.64 1.33-.65 1.33-.67 1.33-.68 1.32-.7 1.32-.71 1.31-.72 1.31-.74 1.31-1.43 2.46-22.51 1.45 2.6-5.28.65-1.34.63-1.34.62-1.34.6-1.34zM88.61 163.6l.34-2.26.32-2.27.29-2.29.27-2.31.24-2.33.22-2.34.19-2.36.34-4.75 45.81.08-.39 3.36-.07.55-.07.54-.07.54-.07.55-.07.55-.08.55-.08.54-.08.54-.08.55-.08.55-.09.55-.09.55-.09.54-.09.55-.1.54-.1.55-.1.55-.1.55-.1.55-.1.54-.11.55-.11.55-.11.55-.11.55-.12.55-.12.55-.12.55-.12.55-.13.55-.13.55-.58 2.41-18.94.74v.34l-.05.36-.05.36-.06.37-.06.37-.06.37-.06.37-.06.37-.06.37-.06.37-.06.37-.07.37-.07.37-.07.37-.07.37-.07.37-.07.37 18.12-.26-1.32 3.88-.17.49-.17.49-.17.49-.17.49-.18.49-.18.49-.18.49-.18.48-.18.49-.19.49-.19.49-.19.49-.19.49-.19.49-.2.48-.2.48-.2.49-.2.49-.21.49-.21.49-.21.49-.21.49-.21.48-.22.48-.22.49-.22.49-.22.49-.22.48-.23.49-.23.49-.87 1.81-16.62 1.12-.24.58-.28.69-.29.69-.29.69-.29.69-.3.68-.3.68-.3.68-.31.68-.31.68-.31.68-.31.68-.32.68-.32.68-.32.68-.32.68-.33.68-.33.68-.33.68-.33.68-.33.68-.34.68-.34.68-.34.68-.34.68-.35.67-.35.67-.35.67-.35.67-1 1.93-25.61 1.65 3.2-5.86 1-1.83.93-1.85.9-1.87.87-1.89.85-1.9.82-1.92.79-1.94.76-2 .74-2 .71-2 .68-2 .66-2 .63-2.06.6-2.07L85 181l.55-2.11.52-2.13.5-2.15.47-2.17.44-2.18.42-2.2.39-2.22.37-2.24zm174.72-9.18l-.28 1.2-.29 1.2-.3 1.2-.31 1.2-.33 1.19-.34 1.19-.35 1.19-.36 1.18-.37 1.18-.38 1.18-.39 1.18-.4 1.17-.41 1.17-.42 1.17-.43 1.17-.44 1.17-.45 1.16-.45 1.16-.46 1.16-.47 1.16-.48 1.16-.48 1.16-.49 1.16-.5 1.16-.42 1-.13.52-.12.6-.08.53v1.23h1.09l.43-.05.32-.1.4-.19.47-.3.53-.42.57-.54.6-.66.62-.78.64-.88.65-1 .65-1.08.65-1.17.65-1.26.64-1.34.63-1.41.63-1.48.61-1.54.6-1.6.59-1.65.57-1.7.55-1.74.53-1.77.52-1.81.49-1.83.47-1.85.45-1.87.42-1.88.4-1.89.37-1.89.34-1.89.31-1.88.61-4.05h21.46l-.32 3.83-.11 1.11-.13 1.1-.15 1.09-.17 1.09-.19 1.08-.2 1.07-.22 1.06-.23 1.06-.25 1-.26 1-.28 1-.29 1-.3 1-.31 1-.32 1-.33 1-.34 1-.35 1-.36 1-.37 1-.37 1-.38 1-.39.94-.39.94-.39.93-.4.92-.4.91-.41.91-.41.9-.41.89-.41.89-1 2.14-1 2-1 1.91-.94 1.8-.92 1.69-.91 1.58-.89 1.48-.88 1.38-.87 1.29-.87 1.2-.86 1.12-.86 1-.86 1-.87.88-.88.81-.88.74-.89.67-.9.61-.91.54-.92.48-.93.42-.94.37-.95.32-1 .27-1 .23-1 .19-1 .16-1 .13-1 .11-1 .09-1 .08-1 .07-16.51 1.06h-2.38l-.74-.07-.71-.11-.68-.16-.65-.2-.62-.25-.59-.3-.56-.35-.52-.4-.47-.45-.42-.49-.36-.53-.3-.56-.24-.57-.18-.58-.13-.59-.08-.59v-1.77l.06-.59.09-.59.11-.59.14-.59.16-.59.18-.59.2-.59.21-.59.23-.59.24-.59.64-1.49.62-1.46.61-1.46.6-1.45.59-1.45.58-1.45.57-1.44.56-1.44.54-1.44.53-1.44.52-1.44.51-1.44.49-1.44.48-1.44.47-1.44.45-1.44.44-1.44.42-1.44.41-1.44.4-1.44.38-1.44.37-1.45.35-1.45.33-1.46.32-1.46.3-1.46.29-1.47.27-1.48.25-1.48.24-1.49.22-1.49.5-3.72h22.75l-.59 4.11-.19 1.23-.21 1.22-.22 1.22-.24 1.22-.25 1.21-.26 1.21zm-125.49-11.64h24.07l-.59 4.22-.2 1.35-.21 1.35-.21 1.35-.22 1.35-.23 1.35-.24 1.34-.25 1.34-.26 1.34-.27 1.34-.23 1.39-.29 1.34-.3 1.34-.31 1.34-.32 1.33-.33 1.33-.35 1.33-.36 1.33-.37 1.33-.38 1.33-.4 1.32-.41 1.32-.42 1.32-.44 1.32-.45 1.32-.47 1.32-.48 1.31-.5 1.31-.51 1.31-.53 1.31-.54 1.3-.47 1.09-.14.59-.12.64-.06.55v1.2h.06l.14.05.24.06h1.4l.51-.06.39-.12.46-.22.53-.34.58-.48.62-.61.65-.74.67-.87.68-1 .69-1.1.69-1.21.69-1.31.68-1.41.67-1.49.66-1.57.65-1.65.64-1.72.63-1.78.61-1.84.59-1.89.58-1.94.56-2 .54-2 .52-2 .49-2.07.47-2.09.45-2.1.42-2.11.4-2.12.37-2.11.34-2.11.63-4.27h21.37l-.31 3.93L191 148l-.12 1.21-.14 1.2-.15 1.2-.16 1.19-.17 1.19-.18 1.18-.2 1.18-.21 1.17-.22 1.16-.23 1.16L189 161l-.25 1.15-.26 1.14-.27 1.13-.27 1.12-.28 1.12-.29 1.11-.3 1.1-.3 1.09-.31 1.08-.32 1.08-.32 1.07-.33 1.06-.34 1-.34 1-.35 1-.35 1-.36 1-.36 1-.36 1-.91 2.45-.87 2.3-.83 2.15-.8 2-.76 1.88-.74 1.76-.71 1.64-.69 1.52-.73 1.55-.67 1.31-.63 1.19-.66 1.12-.66 1-.67 1-.71.88-.71.81-.73.73-.76.66-.79.59-.82.52-.84.45-.87.38-.88.32-.9.26-.92.21-.93.17-1 .14-1 .11-1 .1-1 .08-1.09.08-1.13.07-25 1.61h-2.53l-.77-.06-.74-.1-.71-.14-.68-.19-.65-.24-.62-.29-.59-.35-.54-.41-.49-.47-.43-.52-.36-.56-.29-.59-.22-.61-.15-.61-.09-.61v-1.81l.07-.6.1-.59.13-.6.15-.6.17-.6.19-.6.21-.61.21-.53.24-.62.25-.63.26-.63.7-1.65.67-1.62.65-1.63.63-1.63.61-1.63.59-1.63.57-1.64.56-1.64.54-1.64.52-1.64.5-1.65.49-1.65.47-1.65.45-1.65.44-1.66.42-1.66.41-1.66.39-1.66.38-1.67.36-1.67.35-1.67.34-1.67.32-1.67.31-1.68.3-1.68.29-1.68.27-1.68.26-1.69.25-1.69.24-1.69.23-1.69.51-3.91zm178.09-47.94l1 1.11 1 1.12 1 1.12.95 1.13.94 1.13.93 1.13.92 1.14.91 1.14.9 1.14.89 1.15.88 1.15.87 1.15.87 1.16.86 1.16.85 1.16.84 1.17.83 1.17.82 1.17.81 1.18.81 1.18.8 1.18.79 1.18 3.42 5.18L318 125l.13.2.21.33.21.33.21.33.21.33.21.33.21.33.21.33.21.33.21.33.21.33.21.33.21.33.21.33.21.33.21.33.2.33.2.33.2.33 7.45 12.08-12.64-9.71-1.69-1.29-1.69-1.27-1.68-1.26-1.63-1.25-1.68-1.24-1.7-1.2-1.68-1.21-1.68-1.2-1.68-1.18-1.68-1.17-1.68-1.16-1.68-1.14-1.68-1.13-1.68-1.11-1.68-1.1-1.68-1.08-1.68-1.07-1.68-1.06-1.68-1-1.68-1-1.68-1-1.68-1-1.68-1-1.68-1-1.68-.94-1.7-.95-1.67-.91-1.68-.89-1.67-.87-1.68-.86-3.57-1.79 7.81-26.69 3.27 2.71.31.25.31.25.3.25.3.26.3.25.3.25.3.26.3.26.3.25.3.26.3.26.3.26.3.26.3.26.3.26.29.26.29.26.29.26.29.26.29.26.29.26.29.26.29.26.29.26.29.26.29.26.29.26.49.44 23.7 1.74 1.73 1.74 1.06 1.08 1.05 1.09 1 1.09 1 1.09 1 1.1 1 1.1 1 1.11 1 1.11zm23.72 30.5l-1.35-2.4-.64-1.12-.64-1.12-.65-1.12-.66-1.11-.66-1.11-.67-1.11-.68-1.11-.7-1.14-.69-1.1-.7-1.1-.71-1.1-.71-1.09-.72-1.09-.73-1.09-.74-1.09-.75-1.09-.75-1.08-.76-1.08-.77-1.08-.78-1.07-.79-1.07-.79-1.07-.8-1.07-.81-1.03-.82-1.06-.83-1.06-.84-1.06-.85-1.06-.86-1.05-.86-1-4.71-5.64 15.54 1.14 1.64 1.71 1 1 .95 1 .93 1 .92 1 .9 1.05.89 1.06.88 1.07.86 1.07.85 1.08.84 1.08.82 1.09.81 1.09.8 1.1.78 1.1.77 1.11.76 1.11.75 1.12.74 1.12.73 1.12.72 1.13.71 1.13.7 1.13.69 1.13.68 1.14.67 1.14.66 1.14.66 1.14.65 1.14.64 1.14.63 1.14 2.71 5-14.87-.22zm15.85.24l-1.09-2.64-.46-1.09-.48-1.08-.47-1.07-.51-1.08-.52-1.08-.53-1.07-.55-1.07-.56-1.07-.58-1.07-.59-1.06-.6-1.06-.62-1.06-.63-1.05-.65-1.05-.66-1-.67-1-.69-1-.7-1-.71-1-.73-1-.74-1-.75-1-.76-1-.78-1-.79-1-.8-1-.82-1-.83-1-.84-1-.85-1-5-5.65 14.46.8 1.6 1.7.92 1 .91 1 .89 1 .88 1 .87 1 .85 1 .84 1 .83 1 .81 1 .8 1.05.79 1.06.78 1.06.77 1.07.76 1.07.75 1.08.73 1.08.72 1.08.71 1.09.7 1.09.69 1.09.68 1.09.68 1.1.67 1.1.66 1.1.65 1.1.64 1.1.63 1.11.63 1.11.62 1.11.61 1.11 2.69 4.92-15.27-.23zm16.27.24l-1.08-2.6-.45-1.05-.46-1-.48-1-.49-1-.5-1-.52-1-.53-1-.54-1-.56-1-.57-1-.58-1-.6-1-.61-1-.62-1-.63-1-.65-1-.66-1-.67-1-.68-1-.7-1-.71-1-.72-1-.73-1-.75-1-.76-1-.77-1-.78-1-.79-1-.81-1-.82-1-4.89-5.6 13.14 1 1.52 1.43.84 1 .82 1 .8 1 .78 1 .77 1 .75 1 .73 1 .72 1 .7 1 .68 1 .67 1 .66 1 .64 1 .63 1 .62 1 .6 1.05.59 1.06.58 1.06.57 1.06.56 1.07.55 1.07.54 1.07.53 1.07.52 1.08.51 1.08.5 1.08.5 1.08.49 1.08.49 1.08.48 1.09 2 4.69-10.39-.16zm14.6.22l-1.06-2.57-.43-1-.45-1-.46-1-.47-1-.48-1-.5-1-.51-1-.52-1-.53-1-.55-1-.56-1-.57-1-.58-1-.6-1-.61-1-.62-1-.63-1-.64-1-.65-1-.67-1-.68-1-.69-1-.7-1-.71-1-.72-1-.73-.95-.75-.94-.76-.94-.77-.94-.77-.7-4.74-5.55 10.86.8 1.53 1.67.85.95.83 1 .82 1 .8 1 .79 1 .77 1 .76 1 .74 1 .73 1 .71 1 .7 1 .68 1 .67 1 .65 1 .64 1 .62 1 .61 1 .6 1 .58 1 .57 1 .55 1.05.54 1.05.53 1.06.51 1.06.5 1.07.48 1.07.47 1.08.46 1.08.44 1.09.43 1.09 1.73 4.57-9-.13zm-209.7-28.56l.46 1 .45 1 .45 1 .44 1 .44 1 .43 1 .43 1 .42.94.42.91.41.88.4.85.4.81.39.77.38.73.37.68.36.63.34.57.33.51.31.45.28.37.25.29.2.21.14.12.14.07.28.12.29.12.3.11.31.1.33.1.34.09.36.09.38.08.39.07.42.07.43.06.46.06.48.05h27.28l-.06-.23-.19-.68-.21-.73-.22-.78-.24-.82-.25-.86-.19-.29-.29-.94-.3-1-.32-1-.33-1-.34-1L214 105l-.37-1.08-.39-1.1-.4-1.11-.41-1.12-.43-1.16-.44-1.12-.45-1.12-.46-1.12-.44-1.07-.48-1.1-.5-1.11-.53-1.12-.55-1.14-.57-1.15-.58-1.21-.62-1.17-.62-1.17-.63-1.16-.63-1.16-.64-1.15-.64-1.13-.64-1.12-.63-1.1-.63-1.07-.62-1-.6-1-.59-1-.57-.94-.55-.9-.53-.85-.5-.8-.47-.75-.44-.7-.4-.64-.37-.57-.33-.51-.28-.44-.24-.37-.19-.29-.14-.21-.08-.13-2.93-4.46L218.9 65l1.28 1.59.61.77.61.78.61.79.6.79.6.8.6.81.59.81.59.82.58.83.58.84.57.84.57.85.57.86.56.87.56.87.55.88.55.89.55.9.54.9.54.91.53.92.53.93.52.93.52.94.51 1 .27.51.14-.41.25-.76.25-.77.24-.77.24-.77.24-.77.24-.78.24-.78.23-.78.23-.78.23-.79.23-.79.23-.79.22-.79.22-.79.22-.8.22-.8.21-.8.21-.8.21-.81.21-.81.21-.81.21-.81.2-.81.73-2.94 26.19 2.51-.84 3.7-.22 1-.22 1-.23 1-.23 1-.23 1-.23 1-.23 1-.24 1-.24 1-.24 1-.24 1-.25 1-.25 1-.25 1-.25 1-.26 1-.26.95-.26.95-.27.95-.27.95-.27.94-.27.94-.28.94-.28.94-.28.94-.29.94-.29.94-.29.93-.18.56 1.49.64 1.81.16 1.82.85 1.82.87 1.81.9 1.81.92 1.81.95 1.8 1 1.8 1 1.79 1 1.79 1 1.79 1.06 1.78 1.08 1.78 1.1 1.78 1.12 1.77 1.14 1.77 1.16 1.76 1.18 1.76 1.2 1.76 1.22 1.76 1.23 1.75 1.25 1.75 1.27 1.75 1.28 1.74 1.3 1.74 1.31 1.74 1.33 1.74 1.34 1.73 1.35 1.73 1.36 7.42 5.9-39.89-.07-1.91-1.24-1.28-.83-1.27-.83-1.27-.83-1.26-.83-1.25-.82-1.24-.82-1.24-.81-1.23-.8L266 131l-1.21-.79-1.2-.78-1.19-.77-1.18-.75-1.17-.74-1.16-.73-1.15-.71-1.14-.7-1.13-.68-1.11-.67-1.1-.65-1.09-.63-1.08-.61-1.09-.59-1-.57-1-.55-.74-.38.13.43.2.68.2.68.2.68.2.69.19.69.19.69.19.7.19.7.19.7.18.7.18.71.18.71.18.71.18.72.18.72.17.73.17.73.17.73.17.74.17.74.16.74.16.74.82 3.81-71.71-.13h-3.43l-.74-.06-.79-.09-.84-.13-.88-.17-.91-.22-.94-.27-1-.33-1-.39-1-.46-1-.54-1-.61-1-.7-1-.78-1-.87-1-1-.94-1.06-.91-1.16-.87-1.26-.83-1.37-.78-1.48-.72-1.59-.67-1.7-.6-1.79-.55-1.8-.57-1.81-.59-1.84-.6-1.86-.62-1.88-.63-1.9-.64-1.9-.64-1.9-.65-1.9-.65-1.88-.65-1.87-.65-1.84-.64-1.81-.64-1.77-.62-1.73-.61-1.68-.6-1.62-.58-1.56-.56-1.49-.58-1.37-.51-1.34-.48-1.25-.45-1.16-.42-1.06-.38-.95-.34-.83-.3-.71-.25-.57-.18-.38-.18-.13-.3-.66-.07-.17-.11-.25-.13-.33-.16-.41-.18-.48-.19-.54-.19-.6-.19-.65-.19-.7-.18-.74-.16-.78-.14-.81-.11-.84-.07-.86v-1.78l.09-.91.16-.92.25-.92.35-.91.46-.89.58-.85.71-.79.84-.7.95-.6 1.05-.48 1.14-.36 1.23-.25 1.32-.13h1.42l1.47.09 1.46.14 1.43.14 1.44.14 1.45.14 1.46.14 2.36.23 2 .19 1.44.14 4.21.4 1.35.13 1.32.13 1.29.12 1.25.12 1.2.12 1.15.11 1.1.11 1 .1 1 .09.92.09.85.08.78.07.71.07.62.06.54.05h1.07l1.28.12.69.86v.05l.06.08.09.11.11.14.12.16.14.19.16.21.18.24.23.33.21.28.22.3.23.32.25.33.25.35.26.37.27.38.28.39.28.41.29.42.29.43.29.44.3.45.3.45.3.46.29.47.29.47.29.47.28.48.28.48.27.48.26.47.48.89.45.84.42.79.39.74.36.69.34.64.31.59.28.53.25.48.22.42.18.36.15.3.12.24.09.17.05.11 1.93 3.9-23.94-.9h-2l-.22.06-.2.07-.18.07-.15.08-.13.08-.1.08-.08.07-.06.07-.05.08v1.38l.09.48.15.57.22.65.29.73.39.84.46 1 .48 1 .47 1 .47 1 .47 1 .46 1 .46 1 .46 1zm-48.25-33.26l.62 1.05.65 1.11.68 1.18.71 1.23.73 1.29.75 1.35.77 1.41.79 1.46.81 1.52.82 1.57.83 1.62.84 1.67.85 1.72.86 1.77L140 86l.87 1.86.87 1.91.87 2 .86 2 .84 2 .82 2 .79 2 .77 2 .74 2 .72 2 .69 1.95.67 1.92.64 1.89.62 1.86.59 1.82.57 1.78.54 1.73.51 1.68.48 1.62.46 1.56.43 1.49.4 1.42.37 1.35.35 1.27.32 1.18.29 1.09.26 1 .23.9.2.8.17.69.14.57.11.46.08.33v.21l.73 3.18h-25l-.55-1.82v-.32l-.06-.19-.07-.23-.08-.27-.09-.31-.1-.35-.2-.66-.18-.61-.15-.49-.16-.53-.17-.56-.18-.6-.19-.63-.2-.66-.21-.69-.22-.73-.23-.75-.49-1.6-.26-.84-.27-.87-.56-1.82-.3-1-.3-1-.42-1.34-14.71-.31.2 1 .19 1 .18.95.17.92.16.9.15.87.14.84.13.81.12.78.12.75.11.72.1.69.09.66.09.63.08.59.07.56.06.52.06.48.05.45v2.23l.2 2.75H88.86l-.23-2.33v-.43l-.09-.84-.06-.56-.07-.65-.08-.74-.09-.81-.1-.89-.11-1L88 130l-.13-1-.14-1.14-.15-1.19-.16-1.24-.17-1.28-.18-1.32-.19-1.35-.2-1.38-.21-1.4-.22-1.42-.25-1.47-.24-1.44-.24-1.45-.25-1.45L85 110l-.27-1.43-.27-1.42-.28-1.4-.29-1.37-.3-1.35-.31-1.33-.28-1.3-.33-1.34-.34-1.34-.33-1.33-.36-1.34-.37-1.33-.37-1.33-.38-1.32-.39-1.32-.39-1.31-.39-1.31-.4-1.3-.4-1.29-.4-1.28-.44-1.26-.4-1.26-.4-1.25-.4-1.23-.4-1.26-.4-1.21-.39-1.19-.39-1.17-.38-1.16-.38-1.14L73.8 70l-.36-1.1-.36-1.08-.35-1.06-.34-1-.33-1-.33-1-.3-1.12-.18-1.15v-1.11l.11-1.08.26-1 .4-1 .53-.86.63-.76.7-.65.75-.55.79-.46.81-.39.83-.32.84-.31.84-.21.85-.17.84-.13.83-.1.82-.07h6.51L123 55.78l.7 1 .09.13.14.21.19.28.24.36.29.43.33.51.37.58.41.65.45.72.49.79.53.86.56.92.59 1zm-21.23 11.19h-5.75l-1.08.06-.7.14-.41.16-.19.13-.07.08v1.12l.08.38.11.36.11.31.1.24.06.14v.21l.05.12.07.15.08.18.1.21.11.25.12.29.14.33.15.37.17.41.18.45.2.5.21.54.23.59.25.64.26.69.28.74.29.8.31.85.33.91.34 1 .36 1 .38 1.09.39 1.15.41 1.22.43 1.28.45 1.35.47 1.42.45 1.37 13.59.62-.21-.57-.51-1.35-.53-1.45-.51-1.31-.49-1.3-.5-1.28-.5-1.23-.5-1.22-.5-1.19-.49-1.16-.51-1.12-.44-1.08-.45-1-.44-1-.42-1-.41-.92-.39-.87-.37-.82-.35-.77-.33-.71-.3-.65-.28-.59-.25-.53-.22-.47v-.07h-3.14zM309.9 170.1l.43-.07.35-.09.34-.12.33-.16.32-.2.33-.24.33-.29.33-.35.33-.41.33-.47.33-.54.32-.61.31-.67.3-.74.29-.8.27-.83.06-.22-.15-.06-.19-.06-.23-.06h-3.09l-.09.29-.11.38-.12.38-.12.39-.12.38-.12.38-.12.38-.12.38-.12.38-.13.38-.13.38-.13.38-.13.39-.13.38-.13.38-.13.38-.13.39-.14.38-.12.35h.7zM.39 44.1l1 3.5c1.81 6.13 3.43 11.5 4.83 15.93S9 72.89 10.37 78.42s2.73 11.33 4 16.94 2.18 11.12 2.83 16.39 1.3 13.81 1.89 25.08l.13 2.35h2.71l21-.14h2.59l-.14-2.59c-.61-11.24-1.14-18.91-1.6-23.43-.36-3.51-.85-7.23-1.46-11.09l11.91.68c1 4.61 1.87 8.94 2.48 12.9.69 4.56 1.65 11.84 2.85 21.66l.27 2.19h2.2l18.86-.13h2.59l-.14-2.58c-.37-7-1-13.13-1.74-18.21s-1.9-10.44-3.21-15.95-2.77-11.1-4.39-16.85-3.3-10.92-4.93-15.53-4.23-11-7.77-18.93l-.58-1.32-1.44-.14-19.13-1.86-4.44-.43 2 4c1.61 3.22 3.38 7.38 5.27 12.35 1.63 4.28 3.4 9.56 5.27 15.75l-11.38-.92c-1.5-5.47-2.84-10-4-13.5-1.23-3.81-3.38-9.58-6.4-17.14l-.55-1.39-1.49-.15-6.37-.65L4 44.45.39 44.1z"/><path class="cls-2" d="M183.94 64.16a82.94 82.94 0 0 1 6.85 10.18c2.59 4.8 4.07 7.76 4.07 7.76l-19.59-.74s-9.61-1.11-4.62 9.06 9.9 24.06 13.31 26.06c3.7 1.85 8.5 1.85 19.59 1.85s17.19.37 17.19.37A172 172 0 0 0 212 92.82c-5.36-12-15.53-27.45-15.53-27.45l21.09 2A139.65 139.65 0 0 1 235 95a246.7 246.7 0 0 0 7.55-25.25l21.15 2c-2.34 10.25-5 20.35-8.2 30.14 19.26 7.84 37.88 20.54 56.23 35.2l-31.87-.06c-13.72-8.89-26.52-17.82-36.86-22.14a208 208 0 0 1 6 22.11l-68.75-.12s-15.53 2.6-21.25-16.19S143.49 75.81 142.93 76c0 0-7.56-16.49 7.4-15.06zm-62.32-6L88.33 55s-17.41-2.33-14.15 8 8.64 25.06 11.9 39.51 5.24 34.24 5.24 34.24h21.24a147 147 0 0 0-3.14-19.12l19.74.41c3.53 11.32 5.77 18.74 5.77 18.74h20s-5.38-23.31-14.58-44.12a231.58 231.58 0 0 0-18.73-34.47zM104.8 101c-5.45-16.95-7.68-21.4-7.68-21.4s-3.54-6.8 4.25-6.8a84.66 84.66 0 0 1 10.63.4 306.57 306.57 0 0 1 11.94 28.64zm283.28 22.56l3.62.05a95.36 95.36 0 0 0-19.77-31.86l-3.81-.28a117.05 117.05 0 0 1 19.96 32.06zm-14.6-.22l4.79.07c-5-11.51-10.68-22.69-19.69-32.65l-6-.44a117.85 117.85 0 0 1 20.89 33zm-16.26-.24l9.26.14c-6.38-11.73-13.78-23.3-23.65-33.63l-7.3-.54a118.11 118.11 0 0 1 21.68 34zm-16.06-.24l9.07.14c-6.57-12.11-14.24-24.06-24.56-34.65l-8.67-.66a222.36 222.36 0 0 1 24.15 35.14zM271.9 76.9l-6.14 21c18.06 8.95 36.13 21 54.19 34.93q-3.22-5.24-6.71-10.37l20.72.31a222.23 222.23 0 0 0-29.09-35.93l-23.64-1.74q-4.48-4.2-9.33-8.2zm-131.84 68.42c-2.33 18.21-6.31 36.22-13.94 53.77-2.75 6.52-3.51 11.28 5.38 10.71l25-1.61c12.33-.79 14.21-.91 24.15-27.7a129.62 129.62 0 0 0 8-35.09h-16.44c-3.19 22.57-11.6 48.12-20 48.35q-6.26.67-4.3-6.49c5.93-13.59 9.13-27.64 11.09-41.89zm104.69.19c-2.09 16.38-7.27 31.41-14.13 47.2-2.47 5.86-2.43 10.88 5.57 10.37l16.49-1.08c11.09-.71 16.86-2 27.7-25.31 4.31-9.29 8.55-19.72 9.39-31.12h-16.52c-2.87 20.3-11.3 43.28-18.87 43.49-3.76.4-4.61-2-3.44-6.27 5.34-12.22 9.66-24.42 11.43-37.24zm-170 67.94c10.9-19.57 16.76-42.5 18.45-68.22l40.61.07a143.78 143.78 0 0 1-3 17.16l-19.15.74a106.16 106.16 0 0 1-2 11.32l17.73-.25a136.1 136.1 0 0 1-6.23 15.25l-16.74 1.13a225.71 225.71 0 0 1-10.05 21.54zM190.43 206a150.69 150.69 0 0 0 14.28-43.58l-11.77.2a86.35 86.35 0 0 0 3.93-17.22l41.81.07a80.51 80.51 0 0 1-4.29 16.43l-10 .17a160.07 160.07 0 0 1-17.12 42.84zM59.59 145.17H74a4.88 4.88 0 0 1 4.94 5.71q-.9 5.88-2.31 11.74c-.94 3.92-2.06 7.84-3.27 11.74a8.51 8.51 0 0 1-7.5 5.7H51.45c-3.11 0-4.76-2.56-3.79-5.7 1.21-3.9 2.33-7.81 3.27-11.74s1.72-7.82 2.31-11.74a6.71 6.71 0 0 1 6.35-5.71zm2.41 7.59h7.5a2.12 2.12 0 0 1 2.13 2.62q-.69 3.62-1.55 7.23c-.58 2.41-1.22 4.82-1.9 7.23a3.77 3.77 0 0 1-3.37 2.62h-7.47a1.9 1.9 0 0 1-1.82-2.62c.68-2.4 1.33-4.81 1.91-7.23s1.1-4.82 1.56-7.23a3.29 3.29 0 0 1 3.01-2.62zm-39-7.65h25.25q-.33 4.27-.88 8.54h-7.22c-1.09 4.42-2.27 8.86-3.69 13.27s-3.09 8.85-4.79 13.27h-7.6c1.7-4.42 3.35-8.83 4.79-13.27s2.6-8.84 3.69-13.27H22.2q.54-4.27.88-8.54zm9.29 71.11c2-3.84 3.79-7.7 5.44-11.58l8.42-.6q-2.32 5.82-4.9 11.59l5.09-.33a179.52 179.52 0 0 0 10.92-29l-4.92.12c-1.31 4.38-2.79 8.7-4.4 13l-8.34.57a105.73 105.73 0 0 0 4.18-13.37l-4.88.12c-2.6 11-6.91 20.76-11.49 29.81zm-16.01-28.94l16.25-.39a26 26 0 0 1-.58 2.74c-.27 1-.52 1.92-.77 2.67l-5.51.24a116.11 116.11 0 0 1-9.79 24.77l-3.78.25h-1.2a116.89 116.89 0 0 0 9.86-24.8l-6.58.29zM66.74 214l-12.21.8c4.13-8.31 7.79-18.22 11.3-28.67l4.92-.12 5.72-.14-.06.28v.46l-.06.28v.07l-.18.83v.28l-.12.53v.61l-.1.42v.7l-6.16.27q-1.25 3.79-2.61 7.51l6.47-.45.15.09-.18.55v.35l-.07.21-.76 2.2-.38 1v.07l-.14.06-6.72.48q-1.57 3.93-3.35 7.73l6.91-.2q-.83 1.86-1.72 3.71zm242.81-53.3q-1.7 6-4 12.06a31.51 31.51 0 0 0 4.68-.12q5-.52 7.37-8.42c1.5-5.1-7.39-3.66-8.05-3.55zm18.74 31.38c8.33-13.65 13.67-29.3 16.89-46.36l40 .07a145.84 145.84 0 0 1-5 13.85l-20.5.33.22.21a75.32 75.32 0 0 1-2.3 7.93l13.44-.21c-.62 1.62-1.48 3.68-2.58 5.89-.8 1.59-1.54 2.94-2.19 4l-13.23.45a64.38 64.38 0 0 1-4.61 7.16l-.29.54 18-.62q-3.42 5-7.36 9.86l-31.18 2-21.6 1.41s3.16-5.46 1.58-9a11.29 11.29 0 0 0-3.38-4.09c-2.25.32-4 .48-4.7.55a143.82 143.82 0 0 1-7.91 13.43l-15.39 1a179.34 179.34 0 0 0 21.44-54.9l.12.06v-.06h24.74c5.61 0 8.6 0 11.93 4.5s-.35 12.63-3 19.3-6.14 9.83-13.51 12.81c-.81.33-1.67.63-2.56.91a14.81 14.81 0 0 1 7.13 4.53 25.53 25.53 0 0 1 4.21 6.78zM3.79 46.9l14 1.33 6.37.65q4.5 11.27 6.35 17t4.39 15.07l16.71 1.34q-3.41-11.72-6.33-19.4t-5.37-12.57L59 52.18q5.27 11.9 7.7 18.75t4.9 15.39q2.45 8.58 4.4 16.74t3.09 15.67q1.15 7.5 1.71 18l-18.86.13c-1.21-9.92-2.16-17.13-2.86-21.73s-1.68-9.53-2.93-14.89l-16.83-1q1.26 7.39 1.93 14c.46 4.43 1 12.15 1.59 23.31l-21 .14h-.35c-.61-11.44-1.24-19.81-1.91-25.25S18 100.52 16.74 94.83s-2.56-11.31-4-17S10 67.18 8.6 62.8s-3-9.66-4.81-15.89"/><path class="cls-3" d="M255.32 13.23L233.45.9a4.32 4.32 0 0 0-2.12-.56h-66.88a4.32 4.32 0 0 0-2.12.56l-21.88 12.33a4.32 4.32 0 0 0-2.2 3.76v8.62a4.32 4.32 0 0 0 1.84 3.54c.36.25 1.59.92 1.85 1.06l20.38 11.49a4.32 4.32 0 0 0 2.12.56h66.88a4.32 4.32 0 0 0 2.12-.56l20.39-11.49c.25-.14 1.49-.82 1.85-1.06a4.32 4.32 0 0 0 1.84-3.54V17a4.32 4.32 0 0 0-2.2-3.77zm-90.87 24.71l-20.39-11.49 10.83-3.93 1.46-.53 8.1 2.94zm0-20.27l-10 3.63-11.87 4.31V17l21.87-12.34zm16.36 12.76c0 5.11-1.94 7.51-6.15 7.51s-6.24-2.4-6.24-7.51v-7.74h4v8.2c0 2.67.69 3.64 2.27 3.64s2.31-1 2.31-3.64v-8.2h3.84zm0-10.52h-4V14h-4.47v5.94h-4v-15h4v5.57h4.47V4.94h4zm11.61 17.75h-4.79l-4.42-15h4.19l2.67 10.9h.09c.41-1.61 2.63-10.9 2.63-10.9h4.05zm.23-17.75L190 9h-.09c-.41 1.61-2.63 10.9-2.63 10.9h-4.08l4.42-15h4.79l4.42 15zm15.54 17.75h-4v-15h4zm-1.55-17.48c-3.92 0-7.23-2.53-7.23-7.65s3.46-7.88 7.33-7.88a6.56 6.56 0 0 1 4.56 2l-2.17 2.44a3.32 3.32 0 0 0-2.35-1c-1.8 0-3.32 1.61-3.32 4.33s1.29 4.38 3.22 4.38a3.46 3.46 0 0 0 2.63-1.2l2.17 2.4a6.26 6.26 0 0 1-4.85 2.19zM222 37.94c-3.92 0-7.23-2.53-7.23-7.65s3.45-7.88 7.32-7.88a6.56 6.56 0 0 1 4.56 2l-2.17 2.44a3.32 3.32 0 0 0-2.35-1c-1.8 0-3.32 1.61-3.32 4.33s1.29 4.38 3.22 4.38a3.46 3.46 0 0 0 2.63-1.2l2.17 2.4a6.26 6.26 0 0 1-4.83 2.18zm1-18l-3.32-5.76-1.43 2v3.73h-4v-15h4v5.57h.09l3.78-5.57h4.33L222 11l5.34 8.89zm8.3 18v-13l8.1-2.94 1.46.53 10.83 3.93zm21.9-12.33l-11.87-4.31-10-3.63v-13L253.2 17z"/></g></svg>