<svg id="svg2" xmlns="http://www.w3.org/2000/svg" viewBox="0 0 295.4 119.7"><style>.st0{fill:#fff}</style><g id="g10" transform="matrix(1.33333 0 0 -1.33333 0 53.373)"><g id="g12" transform="scale(.1)"><path id="path14" class="st0" d="M1132.1 370.9c75 2.6 150.5-8.7 221.3-33.8 106.5-37.4 201.6-105.9 271.2-194.6 30.6-38.9 56.3-81.7 76.4-127 3.6-7.5 6.3-16 4.4-24.4-2.3-14.1-14.7-25.7-28.9-27.1-14.8-2.2-30 7-35.3 20.9-40 94.1-108.2 175.8-193.3 232.4-52.6 35.2-111.6 60.8-173.3 75.1-79.5 18.6-163.2 18.6-242.7.1-113.5-26.1-217.5-91.3-290.8-181.7C710 72.7 684.3 30.2 665-15c-4.2-10.5-13.8-18.7-25-20.6-10.8-2.1-22.6 1.6-30.2 9.7-8.8 8.9-11.7 23.1-7.1 34.8C656 134.8 754.6 240.6 875.8 303.5c79 41.4 167.3 64.4 256.3 67.4"/><path id="path16" class="st0" d="M1033-16.7c-.4 6.5 5.7 11.4 11.9 11.6 8 .2 16 .1 23.9 0 5.5-.2 12-3.9 12-10.1.3-73.2-.2-146.3.2-219.5 29.6 33 59.5 65.7 89.3 98.6 5.9 5.8 10.5 14.5 19.6 15.3 12.3.5 24.6.2 36.9.2 4.7.4 10-3.9 8.4-9-1.9-3.9-5.5-6.6-8.4-9.7-32.2-32.1-64.5-64.2-96.5-96.4 30.9-35.3 61.4-70.9 92.2-106.4 4-5 8.9-9.3 12.2-14.9 2.4-4.3-1.6-9.6-6.3-9.8-10.2-.6-20.5 0-30.7-.2-5.3.1-11.1-.7-15.9 2.1-5.1 2.9-8.2 8.2-11.8 12.6-29.7 37.4-59.2 74.9-89 112.2-.3-36.8-.1-73.6-.1-110.4-.1-4.2.8-9.4-2.9-12.5-5.9-5.7-14.6-3.7-22-4.1-6.5.2-14.1-1.2-19.4 3.6-2.9 2.3-3.7 6.2-3.6 9.7 0 112.4-.1 224.7 0 337.1"/><path id="path18" class="st0" d="M897.8-120.1c14.9 4.8 31.7 5.7 46.2-.6 5.1-2.4 11.1-7.5 8.7-13.8-2.3-7.9-4.3-15.9-7.1-23.7-2.1-5.6-8.5-7.7-14-6.6-12.3 2.1-24.3 6.2-36.9 5.8-8.8.2-16.9-4.5-22.9-10.6-9.7-9.5-14.7-22.7-17-35.9-1.8-9.5-1.3-19.2-1.4-28.8v-121.1c.6-6.6-6.3-11.1-12.3-11.4-8.2-.1-16.4-.2-24.7.1-5.9.3-12.6 4.6-11.9 11.3 0 74.7-.1 149.5 0 224.2-.5 7.4 7.7 11.5 14.2 10.8 8.1-.5 19.2 2.5 24.4-5.6 4-9.5 5.9-19.7 9.7-29.2 11.5 15.3 26.5 29 45 35.1"/><path id="path20" class="st0" d="M58.8-125.8c2.3 2.6 5 5.5 8.8 5.2 11.2.1 22.4.4 33.5-.2 5.7-.2 9.6-5.1 10.4-10.4 11-44.6 21.8-89.3 32.7-134 3.2-13.8 7.1-27.4 9.2-41.5 2.2-12.6 2.6-25.4 4.6-38 2.8 18 5.3 36.1 10.2 53.7 14.3 53.3 28.6 106.5 42.9 159.8 1.1 6.1 6.8 10.4 12.9 10.4 12.4.3 24.9.1 37.3.1 6.7.3 13.8-3.6 15.4-10.4 10.7-38.8 21.2-77.7 31.8-116.6 6.4-25.2 14.9-49.9 18.5-75.8 1-7.1 2-14.2 3.5-21.3 4 40.6 14.4 80.1 23 119.8 7.1 31.6 14 63.3 21.2 94.9 1.1 6.4 7.8 9.5 13.7 9.4 10 .1 20.1.3 30.1-.2 6-.2 9.4-6.8 7.3-12.1-20.2-74.4-40.2-148.8-60.4-223.2-1.1-6-6.3-10.6-12.4-10.7-15.6-.5-31.2-.1-46.7-.2-5.6-.3-11.5 2.6-12.5 8.5-13.9 51.2-27.6 102.4-41.4 153.6-5 17.8-7 36.3-9.1 54.6-2.6-16.3-3.8-32.9-8.2-48.9-14.1-52.7-28.4-105.4-42.5-158.2-1.6-8.5-11.4-10.2-18.6-9.7-14.5.3-29-.3-43.4.3-5.2 0-9.1 4-10.1 8.9L59.6-135.7c-.8 3.4-.7 6.7-.8 9.9"/><path id="path22" class="st0" d="M1885-120.7c10.6.2 21.2.2 31.8 0 6.4-.1 12.5-4.5 14.5-10.6 18.3-47.7 36.4-95.5 54.6-143.3 3.8-9.7 6.5-19.8 8.2-30.1 7.5 28.3 17.6 55.9 26.4 83.8 9.8 30.2 19.6 60.4 29.5 90.7 1.5 5.3 6.5 8.8 11.8 9.3 8.6.6 17.3.1 26 .3 5.1-.1 11.1.5 14.9-3.5 2.5-2.1 2-5.6.9-8.4-29.2-83.2-58.3-166.5-87.4-249.7-5.1-13.9-9-28.4-17.1-40.9-11.7-19-30.7-32.7-51.5-40.1-7.3-2.3-14.8-7.3-22.6-4.5-5.6 1.4-7.7 7.2-10.7 11.4-2.1 3.9-6.1 7.4-5.2 12.2.4 4.8 4.2 8.6 8.7 9.9 8.8 3 17.7 6.4 24.8 12.6 17.3 14.6 28 36.3 32.1 58.3-2.8 9.8-7.9 18.8-11.6 28.2-27.8 64.7-55.6 129.3-83.5 194-1.7 4.2-4.2 8.3-4.6 12.9-.1 5.1 5.7 7.3 10 7.5"/><path id="path24" class="st0" d="M587.7-152c-15.2-2.8-29-12.3-36.7-25.7-12.9-21.8-14.4-48.2-13.8-72.9.9-22.4 4.5-46.3 18.8-64.4 10.7-13.6 28.2-20.5 45.2-20.2 16.4-.5 33.5 5 44.6 17.5 14.2 15.5 18.7 37 20.7 57.3.9 19.9 1.3 40.2-3.9 59.7-4.1 16.4-12.8 32.9-27.8 41.8-14 8.5-31.3 9.3-47.1 6.9zm6.4 35.5c27.5 1.7 56.2-4 78.9-20.3 20.3-14.4 34-36.6 40.5-60.5 7.6-28.5 7.6-58.8.7-87.4-6.5-26.4-21.8-51.2-44.9-66.2-24.6-16.3-55.6-20.6-84.5-17.1-24.6 3-48.6 13.8-65.8 32-20.2 21.1-30.2 50.2-32.2 78.9-2.5 31.9 2.4 65.6 20.1 92.9 13.1 20.5 34 35.5 57.2 42.4 9.8 3 19.9 4.4 30 5.3"/><path id="path26" class="st0" d="M1404.2-150.7c-15.1-1-29.6-9.6-36.3-23.4-13.1-25.4-13.4-55-12.7-82.9 1-18.3 3-37.1 11.5-53.6 5.8-11.1 16.2-19.9 28.6-22.6 18.9-4.5 41.2-.7 54.6 14.2 12.9 14.7 17.2 34.8 19.2 53.8 1.4 21.6 1.5 43.7-3.9 64.9-3.7 14.2-9.9 28.3-21.1 38.1-10.9 9.5-25.9 13.1-39.9 11.5zM1469-13.6c-.3 5.7 5.5 9.4 10.6 9.8 8.2.4 16.3.2 24.5.1 6.2.1 13.2-4.6 12.3-11.5v-338.6c.4-5.8-5.3-10.4-10.7-10.7-6.5-.3-13-.3-19.5.1-4.6.3-9 3.2-10.5 7.6-2.4 7.3-3.7 15-5.6 22.4-9-12.2-20.6-23-35.1-28.4-20.6-7.6-43.5-7.7-64.7-2.5-21.3 5.1-39.8 19.7-50 39-16.1 29.4-18 63.9-17 96.7.6 28 5.9 57.5 24.1 79.7 13.8 18.8 36.3 29.6 59 32.5 21.2 3.1 44.2-.5 61.7-13.3 8.3-5.8 14.9-13.7 20.9-21.8-.2 46.2-.1 92.6 0 138.9"/><path id="path28" class="st0" d="M1696.9-152.1c-7.6-1.5-14.9-4.6-21-9.3-12.2-9.5-18.3-24.6-21.5-39.3-4.7-23.3-4.6-47.3-2.2-70.8 2.3-17.3 6.6-35.7 19.3-48.5 10.3-10.8 25.9-14.8 40.5-14.1 15.7-.6 32 5.3 42.1 17.6 12.6 15.3 16.2 35.6 18 54.8 1.2 22.5 1.2 45.6-5.1 67.4-4 13.6-11.3 27.2-23.6 34.9-13.7 8.9-30.8 9.7-46.5 7.3zm-21 30.9c21.7 6 45 6.4 67 1.4 20.4-4.7 39.5-16.2 52.1-33.1 13.3-17.4 20-39 22.7-60.4 2.4-16.6 1.7-33.4 1.7-50 0-30.1 0-60.3-.1-90.4.3-3.7-2-6.9-5-8.8-5.1-3.1-11.3-1.7-17-2.1-6.3 0-14.6-.5-18.1 6.1-3.4 7.7-4.1 16.4-6.2 24.5-8.5-10.3-17.3-20.9-29.5-26.9-18.7-9.2-40.6-8.7-60.6-4.8-24.5 4.8-47 19.3-60.9 40.2-16.5 24.3-22.5 54.3-22.3 83.3-.2 28.3 5.3 57.5 21 81.4 12.8 19.3 32.9 33.4 55.2 39.6"/><path id="path30" class="st0" d="M2113.9-306.3c-12.4-4.6-20.3-18.9-17.1-31.9 3.2-15.2 20.9-25.6 35.7-20 13.6 4.2 22.2 19.7 18 33.3-3.8 15.5-22 24.6-36.6 18.6zm1.7 6.5c7.4 1.2 15.4 1.2 22.2-2.2 11.7-5.3 20-17.8 18.8-30.8 1-15.5-12.1-29.4-27-31.9-16.8-3.6-34.8 8.6-38.2 25.3-4.4 16.9 7.3 35.8 24.2 39.6"/><path id="path32" class="st0" d="M2119.1-318.7v-10.6c3.1.2 6.3 0 9.3.8 2.9 1.2 2.6 4.8 1.8 7.3-3 2.9-7.4 2.2-11.1 2.5zm-9.3 5.7c8.9-.5 18.9 2 26.9-3 6.5-4.9 3.3-15.4-4-17.7 2.1-5.6 5-10.8 7.7-16.1-3.4-.1-6.7-.1-10-.2-2.4 4.9-4.8 9.9-7 14.8-1.5 0-2.9.1-4.3.1V-350c-3.2 0-6.2.1-9.3.1-.1 12.4-.1 24.7 0 36.9"/></g></g></svg>