<svg width="2458" height="604" xmlns="http://www.w3.org/2000/svg"><defs><linearGradient x1="9.394%" y1="57.704%" x2="105.69%" y2="27.607%" id="a"><stop stop-color="#007FFF" offset="0%"/><stop stop-color="#1290fc" offset="100%"/></linearGradient><linearGradient x1="50%" y1="0%" x2="50%" y2="137.557%" id="b"><stop stop-color="#FF9386" offset="0%"/><stop stop-color="#FF5F86" offset="100%"/></linearGradient><linearGradient x1="0%" y1="-31.6%" x2="85.99%" y2="151.297%" id="c"><stop stop-color="#D7EDFF" offset="0%"/><stop stop-color="#FFF" stop-opacity="0" offset="100%"/></linearGradient></defs><g fill="none" fill-rule="evenodd"><path d="M402.84 8.01l63.165 182.992-68.464-4.96-.536-177.044a3 3 0 0 1 5.835-.988z" fill="#FFF" transform="rotate(45 431.505 98.495)"/><path d="M486.175 538.267c-93.718 41.2-193.743-65.555-182.304-151.577 39.792 11.846 70.318 15.098 120.155 30.44 35.564 11.636 63.123 7.243 81.884-17.098 18.76-24.342 19.998-53.032 0-78.106-73.378-83.114 0 0-159.87-185.688l44.439-44.655C1.023 60.825 79.842 487.925 104.172 529.733c60.958 53.609 214.514 131.86 382.003 8.534z" fill="#FFF"/><path d="M149.513 292.064l-.513-.243c0 87.304 67.225 330.353 337 248.26-93.396 41.17-193.058-65.033-182.37-151.124-12.838 5.076-26.827 7.864-41.466 7.864-59.581 0-108.387-46.19-112.65-104.757z" fill="#FFF"/><circle fill="#FFF" cx="335.5" cy="233.5" r="29.5"/><circle fill="#FFF" cx="335.5" cy="233.5" r="29.5"/><path d="M729 157.486v256.028c0 3.291 2.182 5.486 5.455 5.486h37.09c3.273 0 5.455-2.195 5.455-5.486V157.486c0-3.291-2.182-5.486-5.455-5.486h-37.09c-3.273 0-5.455 2.195-5.455 5.486zm264.51 81.537c3.294 0 5.49 2.195 5.49 5.487v168.249c0 3.292-2.196 5.486-5.49 5.486h-33.667c-3.293 0-5.123-2.194-5.489-5.486l-1.464-15.362C940.082 412.393 922.15 423 898.73 423c-50.135 0-86.73-41.696-86.73-94s36.595-94 86.73-94c22.689 0 40.986 10.973 54.526 26.335l1.098-16.825c.366-3.292 2.196-5.487 5.49-5.487h33.667zM904.682 380C930.785 380 950 356.642 950 329.635S930.785 280 904.681 280C878.215 280 859 301.168 859 329.635 859 358.467 878.215 380 904.681 380zm295.856-140h-37.151c-3.278 0-5.464 2.183-5.464 5.457v98.595c0 12.733-12.747 34.562-38.607 34.562-17.119 0-34.237-10.187-34.237-39.656v-93.5c0-3.275-2.186-5.458-5.464-5.458h-37.15c-3.279 0-5.464 2.183-5.464 5.457V347.69c0 47.66 27.681 75.31 67.746 75.31 22.582 0 40.793-12.734 53.176-30.197l1.457 20.01c.365 3.274 2.186 5.457 5.464 5.457h35.694c3.278 0 5.463-2.183 5.463-5.457V245.457c0-3.274-2.185-5.457-5.463-5.457zm150.995-5c-25.86 0-44.8 14.246-56.454 33.24v-.366l-1.457-23.377c-.365-3.287-2.186-5.479-5.464-5.479h-35.694c-3.278 0-5.463 2.192-5.463 5.479v168.024c0 3.287 2.185 5.479 5.463 5.479h37.151c3.278 0 5.464-2.192 5.464-5.479v-97.892c0-8.401 12.383-35.066 39.336-35.066 17.483 0 33.508 10.227 33.508 39.814v93.144c0 3.287 2.186 5.479 5.464 5.479h37.15c3.279 0 5.464-2.192 5.464-5.479v-101.91c0-47.85-28.045-75.611-64.468-75.611zm191.358 143.377c-26.877 0-45.763-21.214-45.763-49.377 0-28.163 18.886-49.377 45.763-49.377 16.345 0 26.877 6.949 37.047 16.093 2.906 2.56 5.448 2.926 7.99.366l22.156-21.58c2.18-2.195 2.543-5.12.363-7.681-16.707-19.385-41.042-31.821-68.645-31.821-51.212 0-90.801 41.33-90.801 94s39.59 94 90.8 94c28.33 0 53.029-12.436 69.736-31.821 2.18-2.56 1.816-5.486-.363-7.68l-22.156-21.215c-2.542-2.56-5.085-2.56-7.99 0-10.17 9.144-21.066 16.093-38.137 16.093zm208.642-142.62c-25.86 0-44.8 14.265-56.454 33.284V157.486c0-3.291-2.186-5.486-5.464-5.486h-37.15c-3.279 0-5.464 2.195-5.464 5.486v256.028c0 3.291 2.185 5.486 5.463 5.486h37.151c3.278 0 5.464-2.195 5.464-5.486v-98.022c0-8.413 12.383-35.113 39.336-35.113 17.483 0 33.508 10.242 33.508 39.868v93.267c0 3.291 2.186 5.486 5.464 5.486h37.15c3.279 0 5.464-2.195 5.464-5.486V311.468c0-47.913-28.045-75.71-64.468-75.71zm281.979 3.266c3.293 0 5.489 2.195 5.489 5.487v168.249c0 3.292-2.196 5.486-5.49 5.486h-33.667c-3.293 0-5.123-2.194-5.489-5.486l-1.464-15.362c-12.808 14.996-30.74 25.603-54.16 25.603-50.135 0-86.73-41.696-86.73-94s36.595-94 86.73-94c22.689 0 40.986 10.973 54.526 26.335l1.098-16.825c.366-3.292 2.196-5.487 5.49-5.487h33.667zM1943.68 380c26.104 0 45.319-23.358 45.319-50.365S1969.785 280 1943.681 280c-26.466 0-45.681 21.168-45.681 49.635 0 28.832 19.215 50.365 45.681 50.365zm221.21-1.623c-26.878 0-45.764-21.214-45.764-49.377 0-28.163 18.886-49.377 45.763-49.377 16.345 0 26.878 6.949 37.047 16.093 2.906 2.56 5.448 2.926 7.99.366l22.156-21.58c2.18-2.195 2.543-5.12.363-7.681-16.707-19.385-41.042-31.821-68.645-31.821-51.212 0-90.801 41.33-90.801 94s39.59 94 90.8 94c28.33 0 53.029-12.436 69.736-31.821 2.18-2.56 1.816-5.486-.363-7.68l-22.156-21.215c-2.542-2.56-5.085-2.56-7.99 0-10.17 9.144-21.066 16.093-38.137 16.093zM2356 423c-51.626 0-93-41.33-93-94s41.374-94 93-94 93 41.33 93 94-41.374 94-93 94zm0-44c25.354 0 46-20.533 46-49.5s-20.646-49.5-46-49.5c-25.717 0-46 20.533-46 49.5s20.283 49.5 46 49.5z" fill="#FFF"/></g></svg>
