<?xml version="1.0" encoding="utf-8"?>
<!-- Generator: Adobe Illustrator 21.1.0, SVG Export Plug-In . SVG Version: 6.00 Build 0)  -->
<svg version="1.1"
	 id="svg2" xmlns:cc="http://creativecommons.org/ns#" xmlns:dc="http://purl.org/dc/elements/1.1/" xmlns:rdf="http://www.w3.org/1999/02/22-rdf-syntax-ns#" xmlns:svg="http://www.w3.org/2000/svg"
	 xmlns="http://www.w3.org/2000/svg" xmlns:xlink="http://www.w3.org/1999/xlink" x="0px" y="0px" viewBox="0 0 295.4 119.7"
	 style="enable-background:new 0 0 295.4 119.7;" xml:space="preserve">
<style type="text/css">
	.st0{fill:#FFFFFF;}
</style>
<g id="g10" transform="matrix(1.3333333,0,0,-1.3333333,0,53.373333)">
	<g id="g12" transform="scale(0.1)">
		<path id="path14" class="st0" d="M1132.1,370.9c75,2.6,150.5-8.7,221.3-33.8c106.5-37.4,201.6-105.9,271.2-194.6
			c30.6-38.9,56.3-81.7,76.4-127c3.6-7.5,6.3-16,4.4-24.4c-2.3-14.1-14.7-25.7-28.9-27.1c-14.8-2.2-30,7-35.3,20.9
			c-40,94.1-108.2,175.8-193.3,232.4c-52.6,35.2-111.6,60.8-173.3,75.1c-79.5,18.6-163.2,18.6-242.7,0.1
			c-113.5-26.1-217.5-91.3-290.8-181.7c-31.1-38.1-56.8-80.6-76.1-125.8c-4.2-10.5-13.8-18.7-25-20.6c-10.8-2.1-22.6,1.6-30.2,9.7
			C601-17,598.1-2.8,602.7,8.9C656,134.8,754.6,240.6,875.8,303.5C954.8,344.9,1043.1,367.9,1132.1,370.9L1132.1,370.9"/>
		<path id="path16" class="st0" d="M1033-16.7c-0.4,6.5,5.7,11.4,11.9,11.6c8,0.2,16,0.1,23.9,0c5.5-0.2,12-3.9,12-10.1
			c0.3-73.2-0.2-146.3,0.2-219.5c29.6,33,59.5,65.7,89.3,98.6c5.9,5.8,10.5,14.5,19.6,15.3c12.3,0.5,24.6,0.2,36.9,0.2
			c4.7,0.4,10-3.9,8.4-9c-1.9-3.9-5.5-6.6-8.4-9.7c-32.2-32.1-64.5-64.2-96.5-96.4c30.9-35.3,61.4-70.9,92.2-106.4
			c4-5,8.9-9.3,12.2-14.9c2.4-4.3-1.6-9.6-6.3-9.8c-10.2-0.6-20.5,0-30.7-0.2c-5.3,0.1-11.1-0.7-15.9,2.1
			c-5.1,2.9-8.2,8.2-11.8,12.6c-29.7,37.4-59.2,74.9-89,112.2c-0.3-36.8-0.1-73.6-0.1-110.4c-0.1-4.2,0.8-9.4-2.9-12.5
			c-5.9-5.7-14.6-3.7-22-4.1c-6.5,0.2-14.1-1.2-19.4,3.6c-2.9,2.3-3.7,6.2-3.6,9.7C1033-241.4,1032.9-129.1,1033-16.7L1033-16.7"/>
		<path id="path18" class="st0" d="M897.8-120.1c14.9,4.8,31.7,5.7,46.2-0.6c5.1-2.4,11.1-7.5,8.7-13.8c-2.3-7.9-4.3-15.9-7.1-23.7
			c-2.1-5.6-8.5-7.7-14-6.6c-12.3,2.1-24.3,6.2-36.9,5.8c-8.8,0.2-16.9-4.5-22.9-10.6c-9.7-9.5-14.7-22.7-17-35.9
			c-1.8-9.5-1.3-19.2-1.4-28.8c0-40.4,0-80.7,0-121.1c0.6-6.6-6.3-11.1-12.3-11.4c-8.2-0.1-16.4-0.2-24.7,0.1
			c-5.9,0.3-12.6,4.6-11.9,11.3c0,74.7-0.1,149.5,0,224.2c-0.5,7.4,7.7,11.5,14.2,10.8c8.1-0.5,19.2,2.5,24.4-5.6
			c4-9.5,5.9-19.7,9.7-29.2C864.3-139.9,879.3-126.2,897.8-120.1L897.8-120.1"/>
		<path id="path20" class="st0" d="M58.8-125.8c2.3,2.6,5,5.5,8.8,5.2c11.2,0.1,22.4,0.4,33.5-0.2c5.7-0.2,9.6-5.1,10.4-10.4
			c11-44.6,21.8-89.3,32.7-134c3.2-13.8,7.1-27.4,9.2-41.5c2.2-12.6,2.6-25.4,4.6-38c2.8,18,5.3,36.1,10.2,53.7
			c14.3,53.3,28.6,106.5,42.9,159.8c1.1,6.1,6.8,10.4,12.9,10.4c12.4,0.3,24.9,0.1,37.3,0.1c6.7,0.3,13.8-3.6,15.4-10.4
			c10.7-38.8,21.2-77.7,31.8-116.6c6.4-25.2,14.9-49.9,18.5-75.8c1-7.1,2-14.2,3.5-21.3c4,40.6,14.4,80.1,23,119.8
			c7.1,31.6,14,63.3,21.2,94.9c1.1,6.4,7.8,9.5,13.7,9.4c10,0.1,20.1,0.3,30.1-0.2c6-0.2,9.4-6.8,7.3-12.1
			c-20.2-74.4-40.2-148.8-60.4-223.2c-1.1-6-6.3-10.6-12.4-10.7c-15.6-0.5-31.2-0.1-46.7-0.2c-5.6-0.3-11.5,2.6-12.5,8.5
			c-13.9,51.2-27.6,102.4-41.4,153.6c-5,17.8-7,36.3-9.1,54.6c-2.6-16.3-3.8-32.9-8.2-48.9c-14.1-52.7-28.4-105.4-42.5-158.2
			c-1.6-8.5-11.4-10.2-18.6-9.7c-14.5,0.3-29-0.3-43.4,0.3c-5.2,0-9.1,4-10.1,8.9c-20.3,74.1-40.6,148.2-60.9,222.3
			C58.8-132.3,58.9-129,58.8-125.8L58.8-125.8"/>
		<path id="path22" class="st0" d="M1885-120.7c10.6,0.2,21.2,0.2,31.8,0c6.4-0.1,12.5-4.5,14.5-10.6
			c18.3-47.7,36.4-95.5,54.6-143.3c3.8-9.7,6.5-19.8,8.2-30.1c7.5,28.3,17.6,55.9,26.4,83.8c9.8,30.2,19.6,60.4,29.5,90.7
			c1.5,5.3,6.5,8.8,11.8,9.3c8.6,0.6,17.3,0.1,26,0.3c5.1-0.1,11.1,0.5,14.9-3.5c2.5-2.1,2-5.6,0.9-8.4
			c-29.2-83.2-58.3-166.5-87.4-249.7c-5.1-13.9-9-28.4-17.1-40.9c-11.7-19-30.7-32.7-51.5-40.1c-7.3-2.3-14.8-7.3-22.6-4.5
			c-5.6,1.4-7.7,7.2-10.7,11.4c-2.1,3.9-6.1,7.4-5.2,12.2c0.4,4.8,4.2,8.6,8.7,9.9c8.8,3,17.7,6.4,24.8,12.6
			c17.3,14.6,28,36.3,32.1,58.3c-2.8,9.8-7.9,18.8-11.6,28.2c-27.8,64.7-55.6,129.3-83.5,194c-1.7,4.2-4.2,8.3-4.6,12.9
			C1874.9-123.1,1880.7-120.9,1885-120.7L1885-120.7"/>
		<path id="path24" class="st0" d="M587.7-152c-15.2-2.8-29-12.3-36.7-25.7c-12.9-21.8-14.4-48.2-13.8-72.9
			c0.9-22.4,4.5-46.3,18.8-64.4c10.7-13.6,28.2-20.5,45.2-20.2c16.4-0.5,33.5,5,44.6,17.5c14.2,15.5,18.7,37,20.7,57.3
			c0.9,19.9,1.3,40.2-3.9,59.7c-4.1,16.4-12.8,32.9-27.8,41.8C620.8-150.4,603.5-149.6,587.7-152z M594.1-116.5
			c27.5,1.7,56.2-4,78.9-20.3c20.3-14.4,34-36.6,40.5-60.5c7.6-28.5,7.6-58.8,0.7-87.4c-6.5-26.4-21.8-51.2-44.9-66.2
			c-24.6-16.3-55.6-20.6-84.5-17.1c-24.6,3-48.6,13.8-65.8,32c-20.2,21.1-30.2,50.2-32.2,78.9c-2.5,31.9,2.4,65.6,20.1,92.9
			c13.1,20.5,34,35.5,57.2,42.4C573.9-118.8,584-117.4,594.1-116.5L594.1-116.5"/>
		<path id="path26" class="st0" d="M1404.2-150.7c-15.1-1-29.6-9.6-36.3-23.4c-13.1-25.4-13.4-55-12.7-82.9c1-18.3,3-37.1,11.5-53.6
			c5.8-11.1,16.2-19.9,28.6-22.6c18.9-4.5,41.2-0.7,54.6,14.2c12.9,14.7,17.2,34.8,19.2,53.8c1.4,21.6,1.5,43.7-3.9,64.9
			c-3.7,14.2-9.9,28.3-21.1,38.1C1433.2-152.7,1418.2-149.1,1404.2-150.7z M1469-13.6c-0.3,5.7,5.5,9.4,10.6,9.8
			c8.2,0.4,16.3,0.2,24.5,0.1c6.2,0.1,13.2-4.6,12.3-11.5c0-112.9,0-225.7,0-338.6c0.4-5.8-5.3-10.4-10.7-10.7
			c-6.5-0.3-13-0.3-19.5,0.1c-4.6,0.3-9,3.2-10.5,7.6c-2.4,7.3-3.7,15-5.6,22.4c-9-12.2-20.6-23-35.1-28.4
			c-20.6-7.6-43.5-7.7-64.7-2.5c-21.3,5.1-39.8,19.7-50,39c-16.1,29.4-18,63.9-17,96.7c0.6,28,5.9,57.5,24.1,79.7
			c13.8,18.8,36.3,29.6,59,32.5c21.2,3.1,44.2-0.5,61.7-13.3c8.3-5.8,14.9-13.7,20.9-21.8C1468.8-106.3,1468.9-59.9,1469-13.6
			L1469-13.6"/>
		<path id="path28" class="st0" d="M1696.9-152.1c-7.6-1.5-14.9-4.6-21-9.3c-12.2-9.5-18.3-24.6-21.5-39.3
			c-4.7-23.3-4.6-47.3-2.2-70.8c2.3-17.3,6.6-35.7,19.3-48.5c10.3-10.8,25.9-14.8,40.5-14.1c15.7-0.6,32,5.3,42.1,17.6
			c12.6,15.3,16.2,35.6,18,54.8c1.2,22.5,1.2,45.6-5.1,67.4c-4,13.6-11.3,27.2-23.6,34.9C1729.7-150.5,1712.6-149.7,1696.9-152.1z
			 M1675.9-121.2c21.7,6,45,6.4,67,1.4c20.4-4.7,39.5-16.2,52.1-33.1c13.3-17.4,20-39,22.7-60.4c2.4-16.6,1.7-33.4,1.7-50
			c0-30.1,0-60.3-0.1-90.4c0.3-3.7-2-6.9-5-8.8c-5.1-3.1-11.3-1.7-17-2.1c-6.3,0-14.6-0.5-18.1,6.1c-3.4,7.7-4.1,16.4-6.2,24.5
			c-8.5-10.3-17.3-20.9-29.5-26.9c-18.7-9.2-40.6-8.7-60.6-4.8c-24.5,4.8-47,19.3-60.9,40.2c-16.5,24.3-22.5,54.3-22.3,83.3
			c-0.2,28.3,5.3,57.5,21,81.4C1633.5-141.5,1653.6-127.4,1675.9-121.2L1675.9-121.2"/>
		<path id="path30" class="st0" d="M2113.9-306.3c-12.4-4.6-20.3-18.9-17.1-31.9c3.2-15.2,20.9-25.6,35.7-20
			c13.6,4.2,22.2,19.7,18,33.3C2146.7-309.4,2128.5-300.3,2113.9-306.3z M2115.6-299.8c7.4,1.2,15.4,1.2,22.2-2.2
			c11.7-5.3,20-17.8,18.8-30.8c1-15.5-12.1-29.4-27-31.9c-16.8-3.6-34.8,8.6-38.2,25.3C2087-322.5,2098.7-303.6,2115.6-299.8
			L2115.6-299.8"/>
		<path id="path32" class="st0" d="M2119.1-318.7c0-3.5,0-7,0-10.6c3.1,0.2,6.3,0,9.3,0.8c2.9,1.2,2.6,4.8,1.8,7.3
			C2127.2-318.3,2122.8-319,2119.1-318.7z M2109.8-313c8.9-0.5,18.9,2,26.9-3c6.5-4.9,3.3-15.4-4-17.7c2.1-5.6,5-10.8,7.7-16.1
			c-3.4-0.1-6.7-0.1-10-0.2c-2.4,4.9-4.8,9.9-7,14.8c-1.5,0-2.9,0.1-4.3,0.1c0-5,0-9.9,0-14.9c-3.2,0-6.2,0.1-9.3,0.1
			C2109.7-337.5,2109.7-325.2,2109.8-313L2109.8-313"/>
	</g>
</g>
</svg>
